DBRep_DrawableShape

CASCADE Topology V1, (c) Matra-Datavision
Locations 4
1
              1               0               0               0 
              0               1               0               0 
              0               0               1               0 
1
              1               0               0               0 
              0               1               0               0 
              0               0               1               0 
1
              1               0               0               0 
              0               1               0               0 
              0               0               1               0 
1
              1               0               0               0 
              0               1               0               0 
              0               0               1               0 
Curve2ds 0
Curves 4
7 0 0  3 56 50  15500 193.03100000000001 0.10000000000000001  16033.299999999999 226.505 0.10000000000000001  17100.200000000001 292.93900000000002 0.10000000000000001  18600.299999999999 393.65699999999998 0.10000000000000001  19667 469.61900000000003 0.10000000000000001  20733.799999999999 559.81399999999996 0.10000000000000001  21902 667.52800000000002 0.10000000000000001  23503.5 854.50599999999997 0.10000000000000001  25102.599999999999 1098.6900000000001 0.10000000000000001  26703.799999999999 1370.23 0.10000000000000001  28299.5 1694.99 0.10000000000000001  29903.900000000001 1999.6400000000001 0.10000000000000001  31815.400000000001 2428.9699999999998 0.10000000000000001  34299.900000000001 2959 0.10000000000000001  37157.699999999997 3558.3299999999999 0.10000000000000001  40359.800000000003 4322.1300000000001 0.10000000000000001  43671.199999999997 5187.21 0.10000000000000001  47267 6303.3100000000004 0.10000000000000001  50858.900000000001 7531.3699999999999 0.10000000000000001  54445.699999999997 8818.3400000000001 0.10000000000000001  57738.400000000001 9973.2999999999993 0.10000000000000001  61030.800000000003 11046.1 0.10000000000000001  64327.900000000001 11970 0.10000000000000001  67929 12801.700000000001 0.10000000000000001  71535.699999999997 13408 0.10000000000000001  75142 13804.1 0.10000000000000001  78447.800000000003 13985.200000000001 0.10000000000000001  81749.899999999994 14030.4 0.10000000000000001  83850 14020.4 0.10000000000000001  85050 14020.4 0.10000000000000001  93150 14020.4 0.10000000000000001  101250 14020.4 0.10000000000000001  109350 14020.299999999999 0.10000000000000001  110550 14020.299999999999 0.10000000000000001  112950 14012.200000000001 0.10000000000000001  116553 13943.200000000001 0.10000000000000001  119856 13730.5 0.10000000000000001  123161 13373.5 0.10000000000000001  126469 12844.4 0.10000000000000001  130072 12057.799999999999 0.10000000000000001  133673 11083.9 0.10000000000000001  137274 9941.5400000000009 0.10000000000000001  140566 8747.4500000000007 0.10000000000000001  143773 7486.9200000000001 0.10000000000000001  146893 6199.5100000000002 0.10000000000000001  150225 4811.3299999999999 0.10000000000000001  153551 3449.98 0.10000000000000001  156870 2195.3600000000001 0.10000000000000001  160204 1178.97 0.10000000000000001  162708 787.30100000000004 0.10000000000000001  164300 559.15300000000002 0.10000000000000001  165011 453.16000000000003 0.10000000000000001  165722 338.83699999999999 0.10000000000000001  166297 232.76900000000001 0.10000000000000001  166618 116.619 0.10000000000000001  166710 77.344999999999999 0.10000000000000001 
 0 4 1603.2 1 3206.79 1 4510.3699999999999 1 4811.4300000000003 1 6418.5 1 8029.71 1 9647.4899999999998 1 11271.1 1 12901.4 1 14532.4 1 16169.799999999999 1 18778.099999999999 1 22154 1 24929 1 28653.200000000001 1 32419.200000000001 1 36220.900000000001 1 40040.599999999999 1 43851.5 1 46688.599999999999 1 50427.5 1 54120.099999999999 1 57770.900000000001 1 61392.699999999997 1 64998.400000000001 1 67698.699999999997 1 71298.699999999997 3 95598.699999999997 3 99198.800000000003 1 102800 1 106407 1 109123 1 112769 1 116453 1 120181 1 123957 1 127784 1 130684 1 134293 1 137909 1 141513 1 145075 1 148553 1 151945 1 152662 1 153380 1 154099 1 154827 1 155125 4
7 0 0  3 52 48  40050 0 0  40050 166.667 0  40050 500 0  40050 1000 0  40050 1500 0  40050 2166.6700000000001 0  40050 3000 0  40050 3743.6300000000001 0  40050 4153.9200000000001 -0  40050 4488.3800000000001 0  40050 5021.0500000000002 61.140700000000002  40050 5606.4899999999998 193.08000000000001  40050 6141.2200000000003 342.43000000000001  40050 6540.0699999999997 471.714  40050 6957.2200000000003 628.78099999999995  40050 7372.04 793.99400000000003  40050 7704.79 935.46699999999998  40050 8286.6900000000005 1192.8499999999999  40050 8982.5799999999999 1519.21  40050 9643.6200000000008 1854.5799999999999  40050 10311.1 2197.0900000000001  40050 10926.700000000001 2518.52  40050 11590.299999999999 2896.9499999999998  40050 12265.1 3316.6700000000001  40050 12741 3649.3800000000001  40050 13408 4187.71  40050 13820.200000000001 4565.5500000000002  40050 14434.200000000001 5225.75  40050 14761.700000000001 5657.0699999999997  40050 15192.1 6328.0699999999997  40050 15536.700000000001 6977.5900000000001  40050 15850.5 7842.2700000000004  40050 15997.4 8520.6599999999999  40050 16077.799999999999 9094.0799999999999  40050 16100 9478.0799999999999  40050 16100 9811.7900000000009  40050 16100 10072.6  40050 16100 10500  40050 16100 11166.700000000001  40050 16100 12000  40050 16100 13000  40050 16100 14000  40050 16100 15000  40050 16100 16000  40050 16100 17000  40050 16100 18000  40050 16100 19000  40050 16100 20000  40050 16100 21000  40050 16100 22000  40050 16100 22666.700000000001  40050 16100 23000 
 0 4 500 1 1000 1 1500 1 2000 1 3000 1 4000 1 4230.8900000000003 2 5003.3800000000001 1 5830.5699999999997 1 6030.0799999999999 1 6668.8699999999999 1 7087.5 1 7367.1400000000003 1 8008.3599999999997 1 8172.0500000000002 1 9276 1 10313.6 1 10395.700000000001 1 11526.6 1 12397 1 12686.4 1 13910.799999999999 1 14134.6 1 15258.1 1 15583.200000000001 1 16839.5 1 16873.5 1 17974.900000000001 1 19036.299999999999 1 19621.799999999999 1 20054 1 20772.799999999999 2 21055.099999999999 1 21555.099999999999 1 22055.099999999999 1 23055.099999999999 1 24055.099999999999 1 25055.099999999999 1 26055.099999999999 1 27055.099999999999 1 28055.099999999999 1 29055.099999999999 1 30055.099999999999 1 31055.099999999999 1 32055.099999999999 1 33055.099999999999 1 34055.099999999999 4
7 0 0  3 50 48  4640 600 3750  4843.4200000000001 611.08100000000002 3746.5999999999999  5297.0900000000001 638.98500000000001 3738.1100000000001  6251.71 713.13 3715.7600000000002  7340.8199999999997 830.13699999999994 3680.8000000000002  8372.9699999999993 974.71100000000001 3637.3200000000002  9440.6800000000003 1152 3585.4200000000001  10331.6 1326.4100000000001 3534.0900000000001  11398.9 1540.1800000000001 3472.3699999999999  12311.4 1749.73 3412.4200000000001  13215 1947.6800000000001 3355.21  14281.4 2189.73 3288.8000000000002  15500.6 2466.27 3211.1999999999998  16793.700000000001 2762.7800000000002 3131.21  17858.5 3020.5 3061.2399999999998  18442.400000000001 3157.1100000000001 3025.3200000000002  19282.700000000001 3356.9299999999998 2973.1100000000001  20349.900000000001 3601.6399999999999 2908.6300000000001  21424.700000000001 3848.5999999999999 2845.48  22491.900000000001 4097.71 2782.1599999999999  23559.299999999999 4356.7799999999997 2717.1199999999999  24891.400000000001 4690.0299999999997 2634.6799999999998  25957.400000000001 4968.6400000000003 2567.5900000000001  27024.5 5259.5699999999997 2497.3099999999999  28195.099999999999 5588.9499999999998 2419.8600000000001  29259.799999999999 5904.1000000000004 2346.79  30326.099999999999 6226.0200000000004 2273.54  31415.599999999999 6557.5799999999999 2198.8899999999999  32798.400000000001 6985.3400000000001 2104.8800000000001  33754.699999999997 7283.3800000000001 2040.77  34824.400000000001 7616.4499999999998 1969.8699999999999  35923.699999999997 7960.6700000000001 1897.75  37567.900000000001 8469.4699999999993 1793.6800000000001  38899.900000000001 8879.0499999999993 1712.9400000000001  40682.300000000003 9415.75 1606.78  42131.5 9838.5699999999997 1527  44233.400000000001 10436.6 1415.6400000000001  45750.300000000003 10844.5 1342.98  48021.900000000001 11426.299999999999 1238.4000000000001  49519.5 11784.700000000001 1177.98  51918.800000000003 12329.700000000001 1084.4000000000001  53499.699999999997 12666.700000000001 1029.53  55901.699999999997 13135.200000000001 952.80999999999995  57999.400000000001 13518.799999999999 892.10699999999997  59937 13836.4 842.154  61985.400000000001 14147.200000000001 794.36900000000003  63186.400000000001 14307.299999999999 769.24000000000001  65496.5 14603.799999999999 725.25  66747.199999999997 14747.1 704.32100000000003  67950 14857 686.971 
 0 4 611.26199999999994 1 1363.75 1 2873.1199999999999 1 3898.0500000000002 1 4492.71 1 6123.6300000000001 1 6625.4700000000003 1 7763.4300000000003 1 8937.7099999999991 1 9406.1000000000004 1 11050 1 12695.5 1 13393.1 1 14343.299999999999 1 14497.799999999999 1 15988.9 1 17633.599999999999 1 17811.599999999999 1 19282 1 20934.700000000001 1 21938.299999999999 1 22593.599999999999 1 24259.400000000001 1 25593.799999999999 1 25931.900000000001 1 27608 1 29017.700000000001 1 30283.299999999999 1 30619.099999999999 1 32385.599999999999 1 33745.800000000003 1 35791.900000000001 1 36573.199999999997 1 39339.199999999997 1 40326.900000000001 1 43137.800000000003 1 44056.300000000003 1 47368.400000000001 1 47760.400000000001 1 51442.900000000001 1 52219.599999999999 1 55105.900000000001 1 57842.5 1 58111.599999999999 1 61323.199999999997 1 61477.5 1 65100.199999999997 4
7 0 0  3 56 53  20000 0 0  20000 206.28299999999999 0  20000 360.995 0  20000 476.09100000000001 0  20000 654.92899999999997 0.57702299999999995  20000 1002.98 16.789000000000001  20000 1478.78 92.4452  20000 1809.9300000000001 201.69900000000001  20000 2088.9299999999998 333.73500000000001  20000 2238.6799999999998 426.41399999999999  20000 2440.5900000000001 581.63400000000001  20000 2609.2600000000002 738.71199999999999  20000 2828.1999999999998 1019.4400000000001  20000 2968.1100000000001 1284.1800000000001  20000 3120.1100000000001 1617.9200000000001  20000 3313.4000000000001 2137.2600000000002  20000 3449.8699999999999 2640.5100000000002  20000 3616.9099999999999 3315.8000000000002  20000 3726.8400000000001 3784.1900000000001  20000 4104.75 4462.9899999999998  20000 4415.1400000000003 4803.4799999999996  20000 4774.6199999999999 5121.79  20000 5196.1999999999998 5456.5  20000 5767.79 5772.7600000000002  20000 6455.4099999999999 6031.1999999999998  20000 7038.6300000000001 6211.7399999999998  20000 7581.2799999999997 6358.4300000000003  20000 8249.3600000000006 6539.3999999999996  20000 8932.9899999999998 6730.79  20000 9598.9599999999991 6934.2600000000002  20000 10267.1 7163.1999999999998  20000 10986.9 7422.4300000000003  20000 11639.5 7753.4799999999996  20000 11990.4 7950.9300000000003  20000 12370 8168.3000000000002  20000 12881 8495.6700000000001  20000 13517.200000000001 9016.8600000000006  20000 13980.6 9483.4099999999999  20000 14384.700000000001 9990.2299999999996  20000 14701.4 10490.9  20000 14901.1 10843.299999999999  20000 15146.299999999999 11335.5  20000 15405.200000000001 11992.200000000001  20000 15631.200000000001 12993.1  20000 15788.6 13997.299999999999  20000 15911.700000000001 14997.9  20000 15970.4 15760.700000000001  20000 16008.6 16427.799999999999  20000 16037.9 17094.400000000001  20000 16067.299999999999 17999.799999999999  20000 16086.5 18999.900000000001  20000 16094.700000000001 20000  20000 16098.6 21000  20000 16099.799999999999 22000  20000 16099.9 22666.700000000001  20000 16100 23000 
 0 4 464.137 2 517.93200000000002 1 1268.9300000000001 1 2029.6400000000001 1 2679.4499999999998 1 2828.46 1 3418.6300000000001 1 3465.8800000000001 1 3974.6500000000001 1 4450.1700000000001 1 5061.4499999999998 1 5316.46 1 6100.75 1 7551.2600000000002 1 7659.4899999999998 1 9232.2999999999993 1 9684.0499999999993 1 11145.1 1 11270.5 1 11845.4 1 13564.9 1 14177.1 1 15150.700000000001 1 16310.5 1 16706.799999999999 1 18265.400000000001 1 19505.200000000001 1 19839.299999999999 1 21443.700000000001 1 22943.099999999999 1 23124.400000000001 1 23255.599999999999 1 24911.900000000001 1 25846.400000000001 1 26952.099999999999 1 27864.400000000001 1 28757.299999999999 1 29615.299999999999 1 29685.700000000001 1 31231.599999999999 1 32774.5 1 34294.199999999997 1 35805.099999999999 1 37309.800000000003 1 37736.199999999997 1 38811.599999999999 1 40312.400000000001 1 41812.699999999997 1 43312.800000000003 1 44812.800000000003 1 46312.800000000003 1 47812.800000000003 4
Polygon3D 0
PolygonOnTriangulations 0
Surfaces 0
Triangulations 0

TShapes 17
Ve
1e-07
19999.9999999945 498.023615763429 0.1
0 0

0101101
*
Ve
1e-07
40050.0000000877 4256.9137626808 0.1
0 0

0101101
*
Ed
 1e-07 1 1 0
1  1 0 4510.39211856181 24928.9713499839
0

0101000
+17 0 -16 0 *
Wi

0101000
+15 0 *
Ve
1e-07
40050 4256.91376303422 0.0999538478426093
0 0

0101101
*
Ve
1e-07
40050 9224.84611780994 1644.68301648483
0 0

0101101
*
Ed
 1e-07 1 1 0
1  2 0 4256.92144359485 9526.67439551747
0

0101000
+13 0 -12 0 *
Wi

0101000
+11 0 *
Ve
1e-07
20000.0007105968 3521.42904439286 2929.96849898975
0 0

0101101
*
Ve
1e-07
40050.0009848794 9224.84375555413 1644.68777097438
0 0

0101101
*
Ed
 1e-07 1 1 0
1  3 0 15680.5014531752 36573.1932531583
0

0101000
+9 0 -8 0 *
Wi

0101000
+7 0 *
Ve
1e-07
20000 498.023615696504 0.100011528304824
0 0

0101101
*
Ve
1e-07
20000 3521.43194825493 2929.9677759444
0 0

0101101
*
Ed
 1e-07 1 1 0
1  4 0 514.96799272709 7551.26154053527
0

0101000
+5 0 -4 0 *
Wi

0101000
+3 0 *
Co

1100000
+14 1 +10 2 +6 3 +2 4 *

+1 0 