ISO-10303-21;
HEADER;
FILE_DESCRIPTION(('Open CASCADE Model'),'2;1');
FILE_NAME('Open CASCADE Shape Model','2026-09-07T11:29:39',('Author'),(
    'Open CASCADE'),'Open CASCADE STEP processor 7.7','Open CASCADE 7.7'
  ,'Unknown');
FILE_SCHEMA(('AUTOMOTIVE_DESIGN { 1 0 10303 214 1 1 1 1 }'));
ENDSEC;
DATA;
#1 = APPLICATION_PROTOCOL_DEFINITION('international standard',
  'automotive_design',2000,#2);
#2 = APPLICATION_CONTEXT(
  'core data for automotive mechanical design processes');
#3 = SHAPE_DEFINITION_REPRESENTATION(#4,#10);
#4 = PRODUCT_DEFINITION_SHAPE('','',#5);
#5 = PRODUCT_DEFINITION('design','',#6,#9);
#6 = PRODUCT_DEFINITION_FORMATION('','',#7);
#7 = PRODUCT('Open CASCADE STEP translator 7.7 1',
  'Open CASCADE STEP translator 7.7 1','',(#8));
#8 = PRODUCT_CONTEXT('',#2,'mechanical');
#9 = PRODUCT_DEFINITION_CONTEXT('part definition',#2,'design');
#10 = SHAPE_REPRESENTATION('',(#11,#15,#19,#23,#27),#31);
#11 = AXIS2_PLACEMENT_3D('',#12,#13,#14);
#12 = CARTESIAN_POINT('',(0.,0.,0.));
#13 = DIRECTION('',(0.,0.,1.));
#14 = DIRECTION('',(1.,0.,-0.));
#15 = AXIS2_PLACEMENT_3D('',#16,#17,#18);
#16 = CARTESIAN_POINT('',(0.,0.,0.));
#17 = DIRECTION('',(0.,0.,1.));
#18 = DIRECTION('',(1.,0.,0.));
#19 = AXIS2_PLACEMENT_3D('',#20,#21,#22);
#20 = CARTESIAN_POINT('',(0.,0.,0.));
#21 = DIRECTION('',(0.,0.,1.));
#22 = DIRECTION('',(1.,0.,0.));
#23 = AXIS2_PLACEMENT_3D('',#24,#25,#26);
#24 = CARTESIAN_POINT('',(0.,0.,0.));
#25 = DIRECTION('',(0.,0.,1.));
#26 = DIRECTION('',(1.,0.,0.));
#27 = AXIS2_PLACEMENT_3D('',#28,#29,#30);
#28 = CARTESIAN_POINT('',(0.,0.,0.));
#29 = DIRECTION('',(0.,0.,1.));
#30 = DIRECTION('',(1.,0.,0.));
#31 = ( GEOMETRIC_REPRESENTATION_CONTEXT(3) 
GLOBAL_UNCERTAINTY_ASSIGNED_CONTEXT((#35)) GLOBAL_UNIT_ASSIGNED_CONTEXT(
(#32,#33,#34)) REPRESENTATION_CONTEXT('Context #1',
  '3D Context with UNIT and UNCERTAINTY') );
#32 = ( LENGTH_UNIT() NAMED_UNIT(*) SI_UNIT(.MILLI.,.METRE.) );
#33 = ( NAMED_UNIT(*) PLANE_ANGLE_UNIT() SI_UNIT($,.RADIAN.) );
#34 = ( NAMED_UNIT(*) SI_UNIT($,.STERADIAN.) SOLID_ANGLE_UNIT() );
#35 = UNCERTAINTY_MEASURE_WITH_UNIT(LENGTH_MEASURE(1.E-07),#32,
  'distance_accuracy_value','confusion accuracy');
#36 = PRODUCT_RELATED_PRODUCT_CATEGORY('part',$,(#7));
#37 = SHAPE_DEFINITION_REPRESENTATION(#38,#44);
#38 = PRODUCT_DEFINITION_SHAPE('','',#39);
#39 = PRODUCT_DEFINITION('design','',#40,#43);
#40 = PRODUCT_DEFINITION_FORMATION('','',#41);
#41 = PRODUCT('Open CASCADE STEP translator 7.7 1.1',
  'Open CASCADE STEP translator 7.7 1.1','',(#42));
#42 = PRODUCT_CONTEXT('',#2,'mechanical');
#43 = PRODUCT_DEFINITION_CONTEXT('part definition',#2,'design');
#44 = GEOMETRICALLY_BOUNDED_WIREFRAME_SHAPE_REPRESENTATION('',(#11,#45),
  #106);
#45 = GEOMETRIC_CURVE_SET('',(#46));
#46 = TRIMMED_CURVE('',#47,(#104,PARAMETER_VALUE(4.510392118562E+03)),(
    #105,PARAMETER_VALUE(2.492897134998E+04)),.T.,.PARAMETER.);
#47 = B_SPLINE_CURVE_WITH_KNOTS('',3,(#48,#49,#50,#51,#52,#53,#54,#55,
    #56,#57,#58,#59,#60,#61,#62,#63,#64,#65,#66,#67,#68,#69,#70,#71,#72,
    #73,#74,#75,#76,#77,#78,#79,#80,#81,#82,#83,#84,#85,#86,#87,#88,#89,
    #90,#91,#92,#93,#94,#95,#96,#97,#98,#99,#100,#101,#102,#103),
  .UNSPECIFIED.,.F.,.F.,(4,1,1,1,1,1,1,1,1,1,1,1,1,1,1,1,1,1,1,1,1,1,1,1
    ,1,1,1,3,3,1,1,1,1,1,1,1,1,1,1,1,1,1,1,1,1,1,1,1,1,4),(0.,1.6032E+03
    ,3.20679E+03,4.51037E+03,4.81143E+03,6.4185E+03,8.02971E+03,
    9.64749E+03,1.12711E+04,1.29014E+04,1.45324E+04,1.61698E+04,
    1.87781E+04,2.2154E+04,2.4929E+04,2.86532E+04,3.24192E+04,
    3.62209E+04,4.00406E+04,4.38515E+04,4.66886E+04,5.04275E+04,
    5.41201E+04,5.77709E+04,6.13927E+04,6.49984E+04,6.76987E+04,
    7.12987E+04,9.55987E+04,9.91988E+04,1.028E+05,1.06407E+05,
    1.09123E+05,1.12769E+05,1.16453E+05,1.20181E+05,1.23957E+05,
    1.27784E+05,1.30684E+05,1.34293E+05,1.37909E+05,1.41513E+05,
    1.45075E+05,1.48553E+05,1.51945E+05,1.52662E+05,1.5338E+05,
    1.54099E+05,1.54827E+05,1.55125E+05),.UNSPECIFIED.);
#48 = CARTESIAN_POINT('',(1.55E+04,193.031,0.1));
#49 = CARTESIAN_POINT('',(1.60333E+04,226.505,0.1));
#50 = CARTESIAN_POINT('',(1.71002E+04,292.939,0.1));
#51 = CARTESIAN_POINT('',(1.86003E+04,393.657,0.1));
#52 = CARTESIAN_POINT('',(1.9667E+04,469.619,0.1));
#53 = CARTESIAN_POINT('',(2.07338E+04,559.814,0.1));
#54 = CARTESIAN_POINT('',(2.1902E+04,667.528,0.1));
#55 = CARTESIAN_POINT('',(2.35035E+04,854.506,0.1));
#56 = CARTESIAN_POINT('',(2.51026E+04,1.09869E+03,0.1));
#57 = CARTESIAN_POINT('',(2.67038E+04,1.37023E+03,0.1));
#58 = CARTESIAN_POINT('',(2.82995E+04,1.69499E+03,0.1));
#59 = CARTESIAN_POINT('',(2.99039E+04,1.99964E+03,0.1));
#60 = CARTESIAN_POINT('',(3.18154E+04,2.42897E+03,0.1));
#61 = CARTESIAN_POINT('',(3.42999E+04,2.959E+03,0.1));
#62 = CARTESIAN_POINT('',(3.71577E+04,3.55833E+03,0.1));
#63 = CARTESIAN_POINT('',(4.03598E+04,4.32213E+03,0.1));
#64 = CARTESIAN_POINT('',(4.36712E+04,5.18721E+03,0.1));
#65 = CARTESIAN_POINT('',(4.7267E+04,6.30331E+03,0.1));
#66 = CARTESIAN_POINT('',(5.08589E+04,7.53137E+03,0.1));
#67 = CARTESIAN_POINT('',(5.44457E+04,8.81834E+03,0.1));
#68 = CARTESIAN_POINT('',(5.77384E+04,9.9733E+03,0.1));
#69 = CARTESIAN_POINT('',(6.10308E+04,1.10461E+04,0.1));
#70 = CARTESIAN_POINT('',(6.43279E+04,1.197E+04,0.1));
#71 = CARTESIAN_POINT('',(6.7929E+04,1.28017E+04,0.1));
#72 = CARTESIAN_POINT('',(7.15357E+04,1.3408E+04,0.1));
#73 = CARTESIAN_POINT('',(7.5142E+04,1.38041E+04,0.1));
#74 = CARTESIAN_POINT('',(7.84478E+04,1.39852E+04,0.1));
#75 = CARTESIAN_POINT('',(8.17499E+04,1.40304E+04,0.1));
#76 = CARTESIAN_POINT('',(8.385E+04,1.40204E+04,0.1));
#77 = CARTESIAN_POINT('',(8.505E+04,1.40204E+04,0.1));
#78 = CARTESIAN_POINT('',(9.315E+04,1.40204E+04,0.1));
#79 = CARTESIAN_POINT('',(1.0125E+05,1.40204E+04,0.1));
#80 = CARTESIAN_POINT('',(1.0935E+05,1.40203E+04,0.1));
#81 = CARTESIAN_POINT('',(1.1055E+05,1.40203E+04,0.1));
#82 = CARTESIAN_POINT('',(1.1295E+05,1.40122E+04,0.1));
#83 = CARTESIAN_POINT('',(1.16553E+05,1.39432E+04,0.1));
#84 = CARTESIAN_POINT('',(1.19856E+05,1.37305E+04,0.1));
#85 = CARTESIAN_POINT('',(1.23161E+05,1.33735E+04,0.1));
#86 = CARTESIAN_POINT('',(1.26469E+05,1.28444E+04,0.1));
#87 = CARTESIAN_POINT('',(1.30072E+05,1.20578E+04,0.1));
#88 = CARTESIAN_POINT('',(1.33673E+05,1.10839E+04,0.1));
#89 = CARTESIAN_POINT('',(1.37274E+05,9.94154E+03,0.1));
#90 = CARTESIAN_POINT('',(1.40566E+05,8.74745E+03,0.1));
#91 = CARTESIAN_POINT('',(1.43773E+05,7.48692E+03,0.1));
#92 = CARTESIAN_POINT('',(1.46893E+05,6.19951E+03,0.1));
#93 = CARTESIAN_POINT('',(1.50225E+05,4.81133E+03,0.1));
#94 = CARTESIAN_POINT('',(1.53551E+05,3.44998E+03,0.1));
#95 = CARTESIAN_POINT('',(1.5687E+05,2.19536E+03,0.1));
#96 = CARTESIAN_POINT('',(1.60204E+05,1.17897E+03,0.1));
#97 = CARTESIAN_POINT('',(1.62708E+05,787.301,0.1));
#98 = CARTESIAN_POINT('',(1.643E+05,559.153,0.1));
#99 = CARTESIAN_POINT('',(1.65011E+05,453.16,0.1));
#100 = CARTESIAN_POINT('',(1.65722E+05,338.837,0.1));
#101 = CARTESIAN_POINT('',(1.66297E+05,232.769,0.1));
#102 = CARTESIAN_POINT('',(1.66618E+05,116.619,0.1));
#103 = CARTESIAN_POINT('',(1.6671E+05,77.345,0.1));
#104 = CARTESIAN_POINT('',(1.999999999999E+04,498.02361576342,0.1));
#105 = CARTESIAN_POINT('',(4.005000000009E+04,4.256913762681E+03,0.1));
#106 = ( GEOMETRIC_REPRESENTATION_CONTEXT(3) 
GLOBAL_UNCERTAINTY_ASSIGNED_CONTEXT((#110)) GLOBAL_UNIT_ASSIGNED_CONTEXT
((#107,#108,#109)) REPRESENTATION_CONTEXT('Context #1',
  '3D Context with UNIT and UNCERTAINTY') );
#107 = ( LENGTH_UNIT() NAMED_UNIT(*) SI_UNIT(.MILLI.,.METRE.) );
#108 = ( NAMED_UNIT(*) PLANE_ANGLE_UNIT() SI_UNIT($,.RADIAN.) );
#109 = ( NAMED_UNIT(*) SI_UNIT($,.STERADIAN.) SOLID_ANGLE_UNIT() );
#110 = UNCERTAINTY_MEASURE_WITH_UNIT(LENGTH_MEASURE(1.E-07),#107,
  'distance_accuracy_value','confusion accuracy');
#111 = CONTEXT_DEPENDENT_SHAPE_REPRESENTATION(#112,#114);
#112 = ( REPRESENTATION_RELATIONSHIP('','',#44,#10) 
REPRESENTATION_RELATIONSHIP_WITH_TRANSFORMATION(#113) 
SHAPE_REPRESENTATION_RELATIONSHIP() );
#113 = ITEM_DEFINED_TRANSFORMATION('','',#11,#15);
#114 = PRODUCT_DEFINITION_SHAPE('Placement','Placement of an item',#115
  );
#115 = NEXT_ASSEMBLY_USAGE_OCCURRENCE('1','','',#5,#39,$);
#116 = PRODUCT_RELATED_PRODUCT_CATEGORY('part',$,(#41));
#117 = SHAPE_DEFINITION_REPRESENTATION(#118,#124);
#118 = PRODUCT_DEFINITION_SHAPE('','',#119);
#119 = PRODUCT_DEFINITION('design','',#120,#123);
#120 = PRODUCT_DEFINITION_FORMATION('','',#121);
#121 = PRODUCT('Open CASCADE STEP translator 7.7 1.2',
  'Open CASCADE STEP translator 7.7 1.2','',(#122));
#122 = PRODUCT_CONTEXT('',#2,'mechanical');
#123 = PRODUCT_DEFINITION_CONTEXT('part definition',#2,'design');
#124 = GEOMETRICALLY_BOUNDED_WIREFRAME_SHAPE_REPRESENTATION('',(#11,#125
    ),#182);
#125 = GEOMETRIC_CURVE_SET('',(#126));
#126 = TRIMMED_CURVE('',#127,(#180,PARAMETER_VALUE(4.256921443595E+03)),
  (#181,PARAMETER_VALUE(9.526674395517E+03)),.T.,.PARAMETER.);
#127 = B_SPLINE_CURVE_WITH_KNOTS('',3,(#128,#129,#130,#131,#132,#133,
    #134,#135,#136,#137,#138,#139,#140,#141,#142,#143,#144,#145,#146,
    #147,#148,#149,#150,#151,#152,#153,#154,#155,#156,#157,#158,#159,
    #160,#161,#162,#163,#164,#165,#166,#167,#168,#169,#170,#171,#172,
    #173,#174,#175,#176,#177,#178,#179),.UNSPECIFIED.,.F.,.F.,(4,1,1,1,1
    ,1,1,2,1,1,1,1,1,1,1,1,1,1,1,1,1,1,1,1,1,1,1,1,1,1,1,1,2,1,1,1,1,1,1
    ,1,1,1,1,1,1,1,1,4),(0.,500.,1.E+03,1.5E+03,2.E+03,3.E+03,4.E+03,
    4.23089E+03,5.00338E+03,5.83057E+03,6.03008E+03,6.66887E+03,
    7.0875E+03,7.36714E+03,8.00836E+03,8.17205E+03,9.276E+03,1.03136E+04
    ,1.03957E+04,1.15266E+04,1.2397E+04,1.26864E+04,1.39108E+04,
    1.41346E+04,1.52581E+04,1.55832E+04,1.68395E+04,1.68735E+04,
    1.79749E+04,1.90363E+04,1.96218E+04,2.0054E+04,2.07728E+04,
    2.10551E+04,2.15551E+04,2.20551E+04,2.30551E+04,2.40551E+04,
    2.50551E+04,2.60551E+04,2.70551E+04,2.80551E+04,2.90551E+04,
    3.00551E+04,3.10551E+04,3.20551E+04,3.30551E+04,3.40551E+04),
  .UNSPECIFIED.);
#128 = CARTESIAN_POINT('',(4.005E+04,0.,0.));
#129 = CARTESIAN_POINT('',(4.005E+04,166.667,0.));
#130 = CARTESIAN_POINT('',(4.005E+04,500.,0.));
#131 = CARTESIAN_POINT('',(4.005E+04,1.E+03,0.));
#132 = CARTESIAN_POINT('',(4.005E+04,1.5E+03,0.));
#133 = CARTESIAN_POINT('',(4.005E+04,2.16667E+03,0.));
#134 = CARTESIAN_POINT('',(4.005E+04,3.E+03,0.));
#135 = CARTESIAN_POINT('',(4.005E+04,3.74363E+03,0.));
#136 = CARTESIAN_POINT('',(4.005E+04,4.15392E+03,-0.));
#137 = CARTESIAN_POINT('',(4.005E+04,4.48838E+03,0.));
#138 = CARTESIAN_POINT('',(4.005E+04,5.02105E+03,61.1407));
#139 = CARTESIAN_POINT('',(4.005E+04,5.60649E+03,193.08));
#140 = CARTESIAN_POINT('',(4.005E+04,6.14122E+03,342.43));
#141 = CARTESIAN_POINT('',(4.005E+04,6.54007E+03,471.714));
#142 = CARTESIAN_POINT('',(4.005E+04,6.95722E+03,628.781));
#143 = CARTESIAN_POINT('',(4.005E+04,7.37204E+03,793.994));
#144 = CARTESIAN_POINT('',(4.005E+04,7.70479E+03,935.467));
#145 = CARTESIAN_POINT('',(4.005E+04,8.28669E+03,1.19285E+03));
#146 = CARTESIAN_POINT('',(4.005E+04,8.98258E+03,1.51921E+03));
#147 = CARTESIAN_POINT('',(4.005E+04,9.64362E+03,1.85458E+03));
#148 = CARTESIAN_POINT('',(4.005E+04,1.03111E+04,2.19709E+03));
#149 = CARTESIAN_POINT('',(4.005E+04,1.09267E+04,2.51852E+03));
#150 = CARTESIAN_POINT('',(4.005E+04,1.15903E+04,2.89695E+03));
#151 = CARTESIAN_POINT('',(4.005E+04,1.22651E+04,3.31667E+03));
#152 = CARTESIAN_POINT('',(4.005E+04,1.2741E+04,3.64938E+03));
#153 = CARTESIAN_POINT('',(4.005E+04,1.3408E+04,4.18771E+03));
#154 = CARTESIAN_POINT('',(4.005E+04,1.38202E+04,4.56555E+03));
#155 = CARTESIAN_POINT('',(4.005E+04,1.44342E+04,5.22575E+03));
#156 = CARTESIAN_POINT('',(4.005E+04,1.47617E+04,5.65707E+03));
#157 = CARTESIAN_POINT('',(4.005E+04,1.51921E+04,6.32807E+03));
#158 = CARTESIAN_POINT('',(4.005E+04,1.55367E+04,6.97759E+03));
#159 = CARTESIAN_POINT('',(4.005E+04,1.58505E+04,7.84227E+03));
#160 = CARTESIAN_POINT('',(4.005E+04,1.59974E+04,8.52066E+03));
#161 = CARTESIAN_POINT('',(4.005E+04,1.60778E+04,9.09408E+03));
#162 = CARTESIAN_POINT('',(4.005E+04,1.61E+04,9.47808E+03));
#163 = CARTESIAN_POINT('',(4.005E+04,1.61E+04,9.81179E+03));
#164 = CARTESIAN_POINT('',(4.005E+04,1.61E+04,1.00726E+04));
#165 = CARTESIAN_POINT('',(4.005E+04,1.61E+04,1.05E+04));
#166 = CARTESIAN_POINT('',(4.005E+04,1.61E+04,1.11667E+04));
#167 = CARTESIAN_POINT('',(4.005E+04,1.61E+04,1.2E+04));
#168 = CARTESIAN_POINT('',(4.005E+04,1.61E+04,1.3E+04));
#169 = CARTESIAN_POINT('',(4.005E+04,1.61E+04,1.4E+04));
#170 = CARTESIAN_POINT('',(4.005E+04,1.61E+04,1.5E+04));
#171 = CARTESIAN_POINT('',(4.005E+04,1.61E+04,1.6E+04));
#172 = CARTESIAN_POINT('',(4.005E+04,1.61E+04,1.7E+04));
#173 = CARTESIAN_POINT('',(4.005E+04,1.61E+04,1.8E+04));
#174 = CARTESIAN_POINT('',(4.005E+04,1.61E+04,1.9E+04));
#175 = CARTESIAN_POINT('',(4.005E+04,1.61E+04,2.E+04));
#176 = CARTESIAN_POINT('',(4.005E+04,1.61E+04,2.1E+04));
#177 = CARTESIAN_POINT('',(4.005E+04,1.61E+04,2.2E+04));
#178 = CARTESIAN_POINT('',(4.005E+04,1.61E+04,2.26667E+04));
#179 = CARTESIAN_POINT('',(4.005E+04,1.61E+04,2.3E+04));
#180 = CARTESIAN_POINT('',(4.005E+04,4.256913763034E+03,
    9.995384784261E-02));
#181 = CARTESIAN_POINT('',(4.005E+04,9.22484611781E+03,
    1.644683016485E+03));
#182 = ( GEOMETRIC_REPRESENTATION_CONTEXT(3) 
GLOBAL_UNCERTAINTY_ASSIGNED_CONTEXT((#186)) GLOBAL_UNIT_ASSIGNED_CONTEXT
((#183,#184,#185)) REPRESENTATION_CONTEXT('Context #1',
  '3D Context with UNIT and UNCERTAINTY') );
#183 = ( LENGTH_UNIT() NAMED_UNIT(*) SI_UNIT(.MILLI.,.METRE.) );
#184 = ( NAMED_UNIT(*) PLANE_ANGLE_UNIT() SI_UNIT($,.RADIAN.) );
#185 = ( NAMED_UNIT(*) SI_UNIT($,.STERADIAN.) SOLID_ANGLE_UNIT() );
#186 = UNCERTAINTY_MEASURE_WITH_UNIT(LENGTH_MEASURE(1.E-07),#183,
  'distance_accuracy_value','confusion accuracy');
#187 = CONTEXT_DEPENDENT_SHAPE_REPRESENTATION(#188,#190);
#188 = ( REPRESENTATION_RELATIONSHIP('','',#124,#10) 
REPRESENTATION_RELATIONSHIP_WITH_TRANSFORMATION(#189) 
SHAPE_REPRESENTATION_RELATIONSHIP() );
#189 = ITEM_DEFINED_TRANSFORMATION('','',#11,#19);
#190 = PRODUCT_DEFINITION_SHAPE('Placement','Placement of an item',#191
  );
#191 = NEXT_ASSEMBLY_USAGE_OCCURRENCE('2','','',#5,#119,$);
#192 = PRODUCT_RELATED_PRODUCT_CATEGORY('part',$,(#121));
#193 = SHAPE_DEFINITION_REPRESENTATION(#194,#200);
#194 = PRODUCT_DEFINITION_SHAPE('','',#195);
#195 = PRODUCT_DEFINITION('design','',#196,#199);
#196 = PRODUCT_DEFINITION_FORMATION('','',#197);
#197 = PRODUCT('Open CASCADE STEP translator 7.7 1.3',
  'Open CASCADE STEP translator 7.7 1.3','',(#198));
#198 = PRODUCT_CONTEXT('',#2,'mechanical');
#199 = PRODUCT_DEFINITION_CONTEXT('part definition',#2,'design');
#200 = GEOMETRICALLY_BOUNDED_WIREFRAME_SHAPE_REPRESENTATION('',(#11,#201
    ),#256);
#201 = GEOMETRIC_CURVE_SET('',(#202));
#202 = TRIMMED_CURVE('',#203,(#254,PARAMETER_VALUE(1.568050145318E+04)),
  (#255,PARAMETER_VALUE(3.657319325316E+04)),.T.,.PARAMETER.);
#203 = B_SPLINE_CURVE_WITH_KNOTS('',3,(#204,#205,#206,#207,#208,#209,
    #210,#211,#212,#213,#214,#215,#216,#217,#218,#219,#220,#221,#222,
    #223,#224,#225,#226,#227,#228,#229,#230,#231,#232,#233,#234,#235,
    #236,#237,#238,#239,#240,#241,#242,#243,#244,#245,#246,#247,#248,
    #249,#250,#251,#252,#253),.UNSPECIFIED.,.F.,.F.,(4,1,1,1,1,1,1,1,1,1
    ,1,1,1,1,1,1,1,1,1,1,1,1,1,1,1,1,1,1,1,1,1,1,1,1,1,1,1,1,1,1,1,1,1,1
    ,1,1,1,4),(0.,611.262,1.36375E+03,2.87312E+03,3.89805E+03,
    4.49271E+03,6.12363E+03,6.62547E+03,7.76343E+03,8.93771E+03,
    9.4061E+03,1.105E+04,1.26955E+04,1.33931E+04,1.43433E+04,1.44978E+04
    ,1.59889E+04,1.76336E+04,1.78116E+04,1.9282E+04,2.09347E+04,
    2.19383E+04,2.25936E+04,2.42594E+04,2.55938E+04,2.59319E+04,
    2.7608E+04,2.90177E+04,3.02833E+04,3.06191E+04,3.23856E+04,
    3.37458E+04,3.57919E+04,3.65732E+04,3.93392E+04,4.03269E+04,
    4.31378E+04,4.40563E+04,4.73684E+04,4.77604E+04,5.14429E+04,
    5.22196E+04,5.51059E+04,5.78425E+04,5.81116E+04,6.13232E+04,
    6.14775E+04,6.51002E+04),.UNSPECIFIED.);
#204 = CARTESIAN_POINT('',(4.64E+03,600.,3.75E+03));
#205 = CARTESIAN_POINT('',(4.84342E+03,611.081,3.7466E+03));
#206 = CARTESIAN_POINT('',(5.29709E+03,638.985,3.73811E+03));
#207 = CARTESIAN_POINT('',(6.25171E+03,713.13,3.71576E+03));
#208 = CARTESIAN_POINT('',(7.34082E+03,830.137,3.6808E+03));
#209 = CARTESIAN_POINT('',(8.37297E+03,974.711,3.63732E+03));
#210 = CARTESIAN_POINT('',(9.44068E+03,1.152E+03,3.58542E+03));
#211 = CARTESIAN_POINT('',(1.03316E+04,1.32641E+03,3.53409E+03));
#212 = CARTESIAN_POINT('',(1.13989E+04,1.54018E+03,3.47237E+03));
#213 = CARTESIAN_POINT('',(1.23114E+04,1.74973E+03,3.41242E+03));
#214 = CARTESIAN_POINT('',(1.3215E+04,1.94768E+03,3.35521E+03));
#215 = CARTESIAN_POINT('',(1.42814E+04,2.18973E+03,3.2888E+03));
#216 = CARTESIAN_POINT('',(1.55006E+04,2.46627E+03,3.2112E+03));
#217 = CARTESIAN_POINT('',(1.67937E+04,2.76278E+03,3.13121E+03));
#218 = CARTESIAN_POINT('',(1.78585E+04,3.0205E+03,3.06124E+03));
#219 = CARTESIAN_POINT('',(1.84424E+04,3.15711E+03,3.02532E+03));
#220 = CARTESIAN_POINT('',(1.92827E+04,3.35693E+03,2.97311E+03));
#221 = CARTESIAN_POINT('',(2.03499E+04,3.60164E+03,2.90863E+03));
#222 = CARTESIAN_POINT('',(2.14247E+04,3.8486E+03,2.84548E+03));
#223 = CARTESIAN_POINT('',(2.24919E+04,4.09771E+03,2.78216E+03));
#224 = CARTESIAN_POINT('',(2.35593E+04,4.35678E+03,2.71712E+03));
#225 = CARTESIAN_POINT('',(2.48914E+04,4.69003E+03,2.63468E+03));
#226 = CARTESIAN_POINT('',(2.59574E+04,4.96864E+03,2.56759E+03));
#227 = CARTESIAN_POINT('',(2.70245E+04,5.25957E+03,2.49731E+03));
#228 = CARTESIAN_POINT('',(2.81951E+04,5.58895E+03,2.41986E+03));
#229 = CARTESIAN_POINT('',(2.92598E+04,5.9041E+03,2.34679E+03));
#230 = CARTESIAN_POINT('',(3.03261E+04,6.22602E+03,2.27354E+03));
#231 = CARTESIAN_POINT('',(3.14156E+04,6.55758E+03,2.19889E+03));
#232 = CARTESIAN_POINT('',(3.27984E+04,6.98534E+03,2.10488E+03));
#233 = CARTESIAN_POINT('',(3.37547E+04,7.28338E+03,2.04077E+03));
#234 = CARTESIAN_POINT('',(3.48244E+04,7.61645E+03,1.96987E+03));
#235 = CARTESIAN_POINT('',(3.59237E+04,7.96067E+03,1.89775E+03));
#236 = CARTESIAN_POINT('',(3.75679E+04,8.46947E+03,1.79368E+03));
#237 = CARTESIAN_POINT('',(3.88999E+04,8.87905E+03,1.71294E+03));
#238 = CARTESIAN_POINT('',(4.06823E+04,9.41575E+03,1.60678E+03));
#239 = CARTESIAN_POINT('',(4.21315E+04,9.83857E+03,1.527E+03));
#240 = CARTESIAN_POINT('',(4.42334E+04,1.04366E+04,1.41564E+03));
#241 = CARTESIAN_POINT('',(4.57503E+04,1.08445E+04,1.34298E+03));
#242 = CARTESIAN_POINT('',(4.80219E+04,1.14263E+04,1.2384E+03));
#243 = CARTESIAN_POINT('',(4.95195E+04,1.17847E+04,1.17798E+03));
#244 = CARTESIAN_POINT('',(5.19188E+04,1.23297E+04,1.0844E+03));
#245 = CARTESIAN_POINT('',(5.34997E+04,1.26667E+04,1.02953E+03));
#246 = CARTESIAN_POINT('',(5.59017E+04,1.31352E+04,952.81));
#247 = CARTESIAN_POINT('',(5.79994E+04,1.35188E+04,892.107));
#248 = CARTESIAN_POINT('',(5.9937E+04,1.38364E+04,842.154));
#249 = CARTESIAN_POINT('',(6.19854E+04,1.41472E+04,794.369));
#250 = CARTESIAN_POINT('',(6.31864E+04,1.43073E+04,769.24));
#251 = CARTESIAN_POINT('',(6.54965E+04,1.46038E+04,725.25));
#252 = CARTESIAN_POINT('',(6.67472E+04,1.47471E+04,704.321));
#253 = CARTESIAN_POINT('',(6.795E+04,1.4857E+04,686.971));
#254 = CARTESIAN_POINT('',(2.00000007106E+04,3.521429044393E+03,
    2.92996849899E+03));
#255 = CARTESIAN_POINT('',(4.005000098488E+04,9.224843755554E+03,
    1.644687770974E+03));
#256 = ( GEOMETRIC_REPRESENTATION_CONTEXT(3) 
GLOBAL_UNCERTAINTY_ASSIGNED_CONTEXT((#260)) GLOBAL_UNIT_ASSIGNED_CONTEXT
((#257,#258,#259)) REPRESENTATION_CONTEXT('Context #1',
  '3D Context with UNIT and UNCERTAINTY') );
#257 = ( LENGTH_UNIT() NAMED_UNIT(*) SI_UNIT(.MILLI.,.METRE.) );
#258 = ( NAMED_UNIT(*) PLANE_ANGLE_UNIT() SI_UNIT($,.RADIAN.) );
#259 = ( NAMED_UNIT(*) SI_UNIT($,.STERADIAN.) SOLID_ANGLE_UNIT() );
#260 = UNCERTAINTY_MEASURE_WITH_UNIT(LENGTH_MEASURE(1.E-07),#257,
  'distance_accuracy_value','confusion accuracy');
#261 = CONTEXT_DEPENDENT_SHAPE_REPRESENTATION(#262,#264);
#262 = ( REPRESENTATION_RELATIONSHIP('','',#200,#10) 
REPRESENTATION_RELATIONSHIP_WITH_TRANSFORMATION(#263) 
SHAPE_REPRESENTATION_RELATIONSHIP() );
#263 = ITEM_DEFINED_TRANSFORMATION('','',#11,#23);
#264 = PRODUCT_DEFINITION_SHAPE('Placement','Placement of an item',#265
  );
#265 = NEXT_ASSEMBLY_USAGE_OCCURRENCE('3','','',#5,#195,$);
#266 = PRODUCT_RELATED_PRODUCT_CATEGORY('part',$,(#197));
#267 = SHAPE_DEFINITION_REPRESENTATION(#268,#274);
#268 = PRODUCT_DEFINITION_SHAPE('','',#269);
#269 = PRODUCT_DEFINITION('design','',#270,#273);
#270 = PRODUCT_DEFINITION_FORMATION('','',#271);
#271 = PRODUCT('Open CASCADE STEP translator 7.7 1.4',
  'Open CASCADE STEP translator 7.7 1.4','',(#272));
#272 = PRODUCT_CONTEXT('',#2,'mechanical');
#273 = PRODUCT_DEFINITION_CONTEXT('part definition',#2,'design');
#274 = GEOMETRICALLY_BOUNDED_WIREFRAME_SHAPE_REPRESENTATION('',(#11,#275
    ),#336);
#275 = GEOMETRIC_CURVE_SET('',(#276));
#276 = TRIMMED_CURVE('',#277,(#334,PARAMETER_VALUE(514.96799272709)),(
    #335,PARAMETER_VALUE(7.551261540535E+03)),.T.,.PARAMETER.);
#277 = B_SPLINE_CURVE_WITH_KNOTS('',3,(#278,#279,#280,#281,#282,#283,
    #284,#285,#286,#287,#288,#289,#290,#291,#292,#293,#294,#295,#296,
    #297,#298,#299,#300,#301,#302,#303,#304,#305,#306,#307,#308,#309,
    #310,#311,#312,#313,#314,#315,#316,#317,#318,#319,#320,#321,#322,
    #323,#324,#325,#326,#327,#328,#329,#330,#331,#332,#333),
  .UNSPECIFIED.,.F.,.F.,(4,2,1,1,1,1,1,1,1,1,1,1,1,1,1,1,1,1,1,1,1,1,1,1
    ,1,1,1,1,1,1,1,1,1,1,1,1,1,1,1,1,1,1,1,1,1,1,1,1,1,1,1,1,4),(0.,
    464.137,517.932,1.26893E+03,2.02964E+03,2.67945E+03,2.82846E+03,
    3.41863E+03,3.46588E+03,3.97465E+03,4.45017E+03,5.06145E+03,
    5.31646E+03,6.10075E+03,7.55126E+03,7.65949E+03,9.2323E+03,
    9.68405E+03,1.11451E+04,1.12705E+04,1.18454E+04,1.35649E+04,
    1.41771E+04,1.51507E+04,1.63105E+04,1.67068E+04,1.82654E+04,
    1.95052E+04,1.98393E+04,2.14437E+04,2.29431E+04,2.31244E+04,
    2.32556E+04,2.49119E+04,2.58464E+04,2.69521E+04,2.78644E+04,
    2.87573E+04,2.96153E+04,2.96857E+04,3.12316E+04,3.27745E+04,
    3.42942E+04,3.58051E+04,3.73098E+04,3.77362E+04,3.88116E+04,
    4.03124E+04,4.18127E+04,4.33128E+04,4.48128E+04,4.63128E+04,
    4.78128E+04),.UNSPECIFIED.);
#278 = CARTESIAN_POINT('',(2.E+04,0.,0.));
#279 = CARTESIAN_POINT('',(2.E+04,206.283,0.));
#280 = CARTESIAN_POINT('',(2.E+04,360.995,0.));
#281 = CARTESIAN_POINT('',(2.E+04,476.091,0.));
#282 = CARTESIAN_POINT('',(2.E+04,654.929,0.577023));
#283 = CARTESIAN_POINT('',(2.E+04,1.00298E+03,16.789));
#284 = CARTESIAN_POINT('',(2.E+04,1.47878E+03,92.4452));
#285 = CARTESIAN_POINT('',(2.E+04,1.80993E+03,201.699));
#286 = CARTESIAN_POINT('',(2.E+04,2.08893E+03,333.735));
#287 = CARTESIAN_POINT('',(2.E+04,2.23868E+03,426.414));
#288 = CARTESIAN_POINT('',(2.E+04,2.44059E+03,581.634));
#289 = CARTESIAN_POINT('',(2.E+04,2.60926E+03,738.712));
#290 = CARTESIAN_POINT('',(2.E+04,2.8282E+03,1.01944E+03));
#291 = CARTESIAN_POINT('',(2.E+04,2.96811E+03,1.28418E+03));
#292 = CARTESIAN_POINT('',(2.E+04,3.12011E+03,1.61792E+03));
#293 = CARTESIAN_POINT('',(2.E+04,3.3134E+03,2.13726E+03));
#294 = CARTESIAN_POINT('',(2.E+04,3.44987E+03,2.64051E+03));
#295 = CARTESIAN_POINT('',(2.E+04,3.61691E+03,3.3158E+03));
#296 = CARTESIAN_POINT('',(2.E+04,3.72684E+03,3.78419E+03));
#297 = CARTESIAN_POINT('',(2.E+04,4.10475E+03,4.46299E+03));
#298 = CARTESIAN_POINT('',(2.E+04,4.41514E+03,4.80348E+03));
#299 = CARTESIAN_POINT('',(2.E+04,4.77462E+03,5.12179E+03));
#300 = CARTESIAN_POINT('',(2.E+04,5.1962E+03,5.4565E+03));
#301 = CARTESIAN_POINT('',(2.E+04,5.76779E+03,5.77276E+03));
#302 = CARTESIAN_POINT('',(2.E+04,6.45541E+03,6.0312E+03));
#303 = CARTESIAN_POINT('',(2.E+04,7.03863E+03,6.21174E+03));
#304 = CARTESIAN_POINT('',(2.E+04,7.58128E+03,6.35843E+03));
#305 = CARTESIAN_POINT('',(2.E+04,8.24936E+03,6.5394E+03));
#306 = CARTESIAN_POINT('',(2.E+04,8.93299E+03,6.73079E+03));
#307 = CARTESIAN_POINT('',(2.E+04,9.59896E+03,6.93426E+03));
#308 = CARTESIAN_POINT('',(2.E+04,1.02671E+04,7.1632E+03));
#309 = CARTESIAN_POINT('',(2.E+04,1.09869E+04,7.42243E+03));
#310 = CARTESIAN_POINT('',(2.E+04,1.16395E+04,7.75348E+03));
#311 = CARTESIAN_POINT('',(2.E+04,1.19904E+04,7.95093E+03));
#312 = CARTESIAN_POINT('',(2.E+04,1.237E+04,8.1683E+03));
#313 = CARTESIAN_POINT('',(2.E+04,1.2881E+04,8.49567E+03));
#314 = CARTESIAN_POINT('',(2.E+04,1.35172E+04,9.01686E+03));
#315 = CARTESIAN_POINT('',(2.E+04,1.39806E+04,9.48341E+03));
#316 = CARTESIAN_POINT('',(2.E+04,1.43847E+04,9.99023E+03));
#317 = CARTESIAN_POINT('',(2.E+04,1.47014E+04,1.04909E+04));
#318 = CARTESIAN_POINT('',(2.E+04,1.49011E+04,1.08433E+04));
#319 = CARTESIAN_POINT('',(2.E+04,1.51463E+04,1.13355E+04));
#320 = CARTESIAN_POINT('',(2.E+04,1.54052E+04,1.19922E+04));
#321 = CARTESIAN_POINT('',(2.E+04,1.56312E+04,1.29931E+04));
#322 = CARTESIAN_POINT('',(2.E+04,1.57886E+04,1.39973E+04));
#323 = CARTESIAN_POINT('',(2.E+04,1.59117E+04,1.49979E+04));
#324 = CARTESIAN_POINT('',(2.E+04,1.59704E+04,1.57607E+04));
#325 = CARTESIAN_POINT('',(2.E+04,1.60086E+04,1.64278E+04));
#326 = CARTESIAN_POINT('',(2.E+04,1.60379E+04,1.70944E+04));
#327 = CARTESIAN_POINT('',(2.E+04,1.60673E+04,1.79998E+04));
#328 = CARTESIAN_POINT('',(2.E+04,1.60865E+04,1.89999E+04));
#329 = CARTESIAN_POINT('',(2.E+04,1.60947E+04,2.E+04));
#330 = CARTESIAN_POINT('',(2.E+04,1.60986E+04,2.1E+04));
#331 = CARTESIAN_POINT('',(2.E+04,1.60998E+04,2.2E+04));
#332 = CARTESIAN_POINT('',(2.E+04,1.60999E+04,2.26667E+04));
#333 = CARTESIAN_POINT('',(2.E+04,1.61E+04,2.3E+04));
#334 = CARTESIAN_POINT('',(2.E+04,498.0236156965,0.100011528305));
#335 = CARTESIAN_POINT('',(2.E+04,3.521431948255E+03,2.929967775944E+03)
  );
#336 = ( GEOMETRIC_REPRESENTATION_CONTEXT(3) 
GLOBAL_UNCERTAINTY_ASSIGNED_CONTEXT((#340)) GLOBAL_UNIT_ASSIGNED_CONTEXT
((#337,#338,#339)) REPRESENTATION_CONTEXT('Context #1',
  '3D Context with UNIT and UNCERTAINTY') );
#337 = ( LENGTH_UNIT() NAMED_UNIT(*) SI_UNIT(.MILLI.,.METRE.) );
#338 = ( NAMED_UNIT(*) PLANE_ANGLE_UNIT() SI_UNIT($,.RADIAN.) );
#339 = ( NAMED_UNIT(*) SI_UNIT($,.STERADIAN.) SOLID_ANGLE_UNIT() );
#340 = UNCERTAINTY_MEASURE_WITH_UNIT(LENGTH_MEASURE(1.E-07),#337,
  'distance_accuracy_value','confusion accuracy');
#341 = CONTEXT_DEPENDENT_SHAPE_REPRESENTATION(#342,#344);
#342 = ( REPRESENTATION_RELATIONSHIP('','',#274,#10) 
REPRESENTATION_RELATIONSHIP_WITH_TRANSFORMATION(#343) 
SHAPE_REPRESENTATION_RELATIONSHIP() );
#343 = ITEM_DEFINED_TRANSFORMATION('','',#11,#27);
#344 = PRODUCT_DEFINITION_SHAPE('Placement','Placement of an item',#345
  );
#345 = NEXT_ASSEMBLY_USAGE_OCCURRENCE('4','','',#5,#269,$);
#346 = PRODUCT_RELATED_PRODUCT_CATEGORY('part',$,(#271));
ENDSEC;
END-ISO-10303-21;
